<?xml version="1.0" encoding="UTF-8" standalone="no"?>
<!-- Created with Inkscape (http://www.inkscape.org/) -->

<svg
   xmlns:dc="http://purl.org/dc/elements/1.1/"
   xmlns:cc="http://creativecommons.org/ns#"
   xmlns:rdf="http://www.w3.org/1999/02/22-rdf-syntax-ns#"
   xmlns:svg="http://www.w3.org/2000/svg"
   xmlns="http://www.w3.org/2000/svg"
   version="1.1"
   width="744.09448"
   height="1052.3622"
   id="svg2">
  <defs
     id="defs4" />
  <metadata
     id="metadata7">
    <rdf:RDF>
      <cc:Work
         rdf:about="">
        <dc:format>image/svg+xml</dc:format>
        <dc:type
           rdf:resource="http://purl.org/dc/dcmitype/StillImage" />
        <dc:title></dc:title>
      </cc:Work>
    </rdf:RDF>
  </metadata>
  <g
     id="layer1">
    <path
       d="m 72.214287,241.6479 a 1.5,1.5 0 1 1 -3,0 1.5,1.5 0 1 1 3,0 z"
       transform="translate(0,-59.285715)"
       id="path3763"
       style="fill:#ff0000;stroke:none" />
    <path
       d="m 67.928574,231.6479 a 1.5,1.5 0 1 1 -3,0 1.5,1.5 0 1 1 3,0 z"
       transform="translate(0,-59.285715)"
       id="path3765"
       style="fill:#ff0000;stroke:none" />
    <path
       d="m 80.071426,227.36218 a 1.5,1.5 0 1 1 -3,0 1.5,1.5 0 1 1 3,0 z"
       transform="translate(0,-59.285715)"
       id="path3767"
       style="fill:#ff0000;stroke:none" />
    <path
       d="m 82.928574,231.6479 a 1.5,1.5 0 1 1 -3,0 1.5,1.5 0 1 1 3,0 z"
       transform="translate(0,-59.285715)"
       id="path3769"
       style="fill:#ff0000;stroke:none" />
    <path
       d="m 82.214287,240.21931 a 1.5,1.5 0 1 1 -3,0 1.5,1.5 0 1 1 3,0 z"
       transform="translate(0,-59.285715)"
       id="path3771"
       style="fill:#ff0000;stroke:none" />
    <path
       d="m 76.5,233.07648 a 1.5,1.5 0 1 1 -3,0 1.5,1.5 0 1 1 3,0 z"
       transform="translate(0,-59.285715)"
       id="path3773"
       style="fill:#ff0000;stroke:none" />
    <path
       d="m 69.35714,223.79076 a 1.5,1.5 0 1 1 -3,0 1.5,1.5 0 1 1 3,0 z"
       transform="translate(0,-59.285715)"
       id="path3775"
       style="fill:#ff0000;stroke:none" />
    <path
       d="m 75.785713,220.93361 a 1.5,1.5 0 1 1 -3,0 1.5,1.5 0 1 1 3,0 z"
       transform="translate(0,-59.285715)"
       id="path3777"
       style="fill:#ff0000;stroke:none" />
    <path
       d="m 85.071426,218.79076 a 1.5,1.5 0 1 1 -3,0 1.5,1.5 0 1 1 3,0 z"
       transform="translate(0,-59.285715)"
       id="path3779"
       style="fill:#ff0000;stroke:none" />
    <path
       d="m 90.071426,225.21931 a 1.5,1.5 0 1 1 -3,0 1.5,1.5 0 1 1 3,0 z"
       transform="translate(0,-59.285715)"
       id="path3781"
       style="fill:#ff0000;stroke:none" />
    <path
       d="m 90.071426,235.93361 a 1.5,1.5 0 1 1 -3,0 1.5,1.5 0 1 1 3,0 z"
       transform="translate(0,-59.285715)"
       id="path3783"
       style="fill:#ff0000;stroke:none" />
    <path
       d="m 91.5,243.79076 a 1.5,1.5 0 1 1 -3,0 1.5,1.5 0 1 1 3,0 z"
       transform="translate(0,-59.285715)"
       id="path3785"
       style="fill:#ff0000;stroke:none" />
    <path
       d="m 75.071426,248.07648 a 1.5,1.5 0 1 1 -3,0 1.5,1.5 0 1 1 3,0 z"
       transform="translate(0,-59.285715)"
       id="path3787"
       style="fill:#ff0000;stroke:none" />
    <path
       d="m 85.785713,247.36218 a 1.5,1.5 0 1 1 -3,0 1.5,1.5 0 1 1 3,0 z"
       transform="translate(0,-59.285715)"
       id="path3789"
       style="fill:#ff0000;stroke:none" />
    <path
       d="m 65.07143,238.07648 a 1.5,1.5 0 1 1 -3,0 1.5,1.5 0 1 1 3,0 z"
       transform="translate(0,-59.285715)"
       id="path3791"
       style="fill:#ff0000;stroke:none" />
    <path
       d="m 67.214287,248.07648 a 1.5,1.5 0 1 1 -3,0 1.5,1.5 0 1 1 3,0 z"
       transform="translate(0,-59.285715)"
       id="path3793"
       style="fill:#ff0000;stroke:none" />
    <path
       d="m 93.64286,230.93361 a 1.5,1.5 0 1 1 -3,0 1.5,1.5 0 1 1 3,0 z"
       transform="translate(0,-59.285715)"
       id="path3795"
       style="fill:#ff0000;stroke:none" />
    <path
       d="m 92.214287,199.50504 a 1.5,1.5 0 1 1 -3,0 1.5,1.5 0 1 1 3,0 z"
       transform="translate(0,-59.285715)"
       id="path3797"
       style="fill:#0000ff;stroke:none" />
    <path
       d="m 85.785713,198.07648 a 1.5,1.5 0 1 1 -3,0 1.5,1.5 0 1 1 3,0 z"
       transform="translate(0,-59.285715)"
       id="path3799"
       style="fill:#0000ff;stroke:none" />
    <path
       d="m 78.64286,199.50504 a 1.5,1.5 0 1 1 -3,0 1.5,1.5 0 1 1 3,0 z"
       transform="translate(0,-59.285715)"
       id="path3801"
       style="fill:#0000ff;stroke:none" />
    <path
       d="m 76.5,196.6479 a 1.5,1.5 0 1 1 -3,0 1.5,1.5 0 1 1 3,0 z"
       transform="translate(0,-59.285715)"
       id="path3803"
       style="fill:#0000ff;stroke:none" />
    <path
       d="m 87.214287,191.6479 a 1.5,1.5 0 1 1 -3,0 1.5,1.5 0 1 1 3,0 z"
       transform="translate(0,-59.285715)"
       id="path3805"
       style="fill:#0000ff;stroke:none" />
    <path
       d="m 97.928574,193.07648 a 1.5,1.5 0 1 1 -3,0 1.5,1.5 0 1 1 3,0 z"
       transform="translate(0,-59.285715)"
       id="path3807"
       style="fill:#0000ff;stroke:none" />
    <path
       d="m 102.92857,198.07648 a 1.5,1.5 0 1 1 -2.999996,0 1.5,1.5 0 1 1 2.999996,0 z"
       transform="translate(0,-59.285715)"
       id="path3809"
       style="fill:#0000ff;stroke:none" />
    <path
       d="m 105.78571,207.36218 a 1.5,1.5 0 1 1 -3,0 1.5,1.5 0 1 1 3,0 z"
       transform="translate(0,-59.285715)"
       id="path3811"
       style="fill:#0000ff;stroke:none" />
    <path
       d="m 107.92857,213.79076 a 1.5,1.5 0 1 1 -3,0 1.5,1.5 0 1 1 3,0 z"
       transform="translate(0,-59.285715)"
       id="path3813"
       style="fill:#0000ff;stroke:none" />
    <path
       d="m 109.35714,220.21931 a 1.5,1.5 0 1 1 -3,0 1.5,1.5 0 1 1 3,0 z"
       transform="translate(0,-59.285715)"
       id="path3815"
       style="fill:#0000ff;stroke:none" />
    <path
       d="m 112.21429,228.79076 a 1.5,1.5 0 1 1 -3,0 1.5,1.5 0 1 1 3,0 z"
       transform="translate(0,-59.285715)"
       id="path3817"
       style="fill:#0000ff;stroke:none" />
    <path
       d="m 112.92857,232.36218 a 1.5,1.5 0 1 1 -3,0 1.5,1.5 0 1 1 3,0 z"
       transform="translate(0,-59.285715)"
       id="path3819"
       style="fill:#0000ff;stroke:none" />
    <path
       d="m 112.21429,236.6479 a 1.5,1.5 0 1 1 -3,0 1.5,1.5 0 1 1 3,0 z"
       transform="translate(0,-59.285715)"
       id="path3821"
       style="fill:#0000ff;stroke:none" />
    <path
       d="m 112.21429,237.36218 a 1.5,1.5 0 1 1 -3,0 1.5,1.5 0 1 1 3,0 z"
       transform="translate(0,-59.285715)"
       id="path3823"
       style="fill:#0000ff;stroke:none" />
    <path
       d="m 116.5,235.93361 a 1.5,1.5 0 1 1 -3,0 1.5,1.5 0 1 1 3,0 z"
       transform="translate(0,-59.285715)"
       id="path3825"
       style="fill:#0000ff;stroke:none" />
    <path
       d="m 118.64286,233.79076 a 1.5,1.5 0 1 1 -3,0 1.5,1.5 0 1 1 3,0 z"
       transform="translate(0,-59.285715)"
       id="path3827"
       style="fill:#0000ff;stroke:none" />
    <path
       d="m 120.07143,227.36218 a 1.5,1.5 0 1 1 -3,0 1.5,1.5 0 1 1 3,0 z"
       transform="translate(0,-59.285715)"
       id="path3829"
       style="fill:#0000ff;stroke:none" />
    <path
       d="m 119.35714,219.50504 a 1.5,1.5 0 1 1 -3,0 1.5,1.5 0 1 1 3,0 z"
       transform="translate(0,-59.285715)"
       id="path3831"
       style="fill:#0000ff;stroke:none" />
    <path
       d="m 117.21429,215.93361 a 1.5,1.5 0 1 1 -3,0 1.5,1.5 0 1 1 3,0 z"
       transform="translate(0,-59.285715)"
       id="path3833"
       style="fill:#0000ff;stroke:none" />
    <path
       d="m 115.07143,223.79076 a 1.5,1.5 0 1 1 -3,0 1.5,1.5 0 1 1 3,0 z"
       transform="translate(0,-59.285715)"
       id="path3835"
       style="fill:#0000ff;stroke:none" />
    <path
       d="m 114.35714,215.21931 a 1.5,1.5 0 1 1 -3,0 1.5,1.5 0 1 1 3,0 z"
       transform="translate(0,-59.285715)"
       id="path3837"
       style="fill:#0000ff;stroke:none" />
    <path
       d="m 113.64286,207.36218 a 1.5,1.5 0 1 1 -3,0 1.5,1.5 0 1 1 3,0 z"
       transform="translate(0,-59.285715)"
       id="path3839"
       style="fill:#0000ff;stroke:none" />
    <path
       d="m 112.92857,199.50504 a 1.5,1.5 0 1 1 -3,0 1.5,1.5 0 1 1 3,0 z"
       transform="translate(0,-59.285715)"
       id="path3841"
       style="fill:#0000ff;stroke:none" />
    <path
       d="m 107.92857,195.21931 a 1.5,1.5 0 1 1 -3,0 1.5,1.5 0 1 1 3,0 z"
       transform="translate(0,-59.285715)"
       id="path3843"
       style="fill:#0000ff;stroke:none" />
    <path
       d="m 104.35714,190.21931 a 1.5,1.5 0 1 1 -3,0 1.5,1.5 0 1 1 3,0 z"
       transform="translate(0,-59.285715)"
       id="path3845"
       style="fill:#0000ff;stroke:none" />
    <path
       d="m 102.92857,188.07648 a 1.5,1.5 0 1 1 -2.999996,0 1.5,1.5 0 1 1 2.999996,0 z"
       transform="translate(0,-59.285715)"
       id="path3847"
       style="fill:#0000ff;stroke:none" />
    <path
       d="m 110.07143,185.21931 a 1.5,1.5 0 1 1 -3,0 1.5,1.5 0 1 1 3,0 z"
       transform="translate(0,-59.285715)"
       id="path3849"
       style="fill:#0000ff;stroke:none" />
    <path
       d="m 116.5,188.07648 a 1.5,1.5 0 1 1 -3,0 1.5,1.5 0 1 1 3,0 z"
       transform="translate(0,-59.285715)"
       id="path3851"
       style="fill:#0000ff;stroke:none" />
    <path
       d="m 119.35714,196.6479 a 1.5,1.5 0 1 1 -3,0 1.5,1.5 0 1 1 3,0 z"
       transform="translate(0,-59.285715)"
       id="path3853"
       style="fill:#0000ff;stroke:none" />
    <path
       d="m 125.07143,208.79076 a 1.5,1.5 0 1 1 -3,0 1.5,1.5 0 1 1 3,0 z"
       transform="translate(0,-59.285715)"
       id="path3855"
       style="fill:#0000ff;stroke:none" />
    <path
       d="m 126.5,215.21931 a 1.5,1.5 0 1 1 -3,0 1.5,1.5 0 1 1 3,0 z"
       transform="translate(0,-59.285715)"
       id="path3857"
       style="fill:#0000ff;stroke:none" />
    <path
       d="m 116.5,205.21931 a 1.5,1.5 0 1 1 -3,0 1.5,1.5 0 1 1 3,0 z"
       transform="translate(0,-59.285715)"
       id="path3859"
       style="fill:#0000ff;stroke:none" />
    <path
       d="m 123.64286,203.07648 a 1.5,1.5 0 1 1 -3,0 1.5,1.5 0 1 1 3,0 z"
       transform="translate(0,-59.285715)"
       id="path3861"
       style="fill:#0000ff;stroke:none" />
    <path
       d="m 120.07143,208.07648 a 1.5,1.5 0 1 1 -3,0 1.5,1.5 0 1 1 3,0 z"
       transform="translate(0,-59.285715)"
       id="path3863"
       style="fill:#0000ff;stroke:none" />
    <path
       d="m 127.21429,201.6479 a 1.5,1.5 0 1 1 -3,0 1.5,1.5 0 1 1 3,0 z"
       transform="translate(0,-59.285715)"
       id="path3865"
       style="fill:#0000ff;stroke:none" />
    <path
       d="m 125.78571,195.93361 a 1.5,1.5 0 1 1 -3,0 1.5,1.5 0 1 1 3,0 z"
       transform="translate(0,-59.285715)"
       id="path3867"
       style="fill:#0000ff;stroke:none" />
    <path
       d="m 98.64286,187.36218 a 1.5,1.5 0 1 1 -3,0 1.5,1.5 0 1 1 3,0 z"
       transform="translate(0,-59.285715)"
       id="path3869"
       style="fill:#0000ff;stroke:none" />
    <path
       d="m 91.5,190.21931 a 1.5,1.5 0 1 1 -3,0 1.5,1.5 0 1 1 3,0 z"
       transform="translate(0,-59.285715)"
       id="path3871"
       style="fill:#0000ff;stroke:none" />
    <path
       d="m 99.35714,200.21931 a 1.5,1.5 0 1 1 -3,0 1.5,1.5 0 1 1 3,0 z"
       transform="translate(0,-59.285715)"
       id="path3873"
       style="fill:#0000ff;stroke:none" />
    <path
       d="m 105.78571,201.6479 a 1.5,1.5 0 1 1 -3,0 1.5,1.5 0 1 1 3,0 z"
       transform="translate(0,-59.285715)"
       id="path3875"
       style="fill:#0000ff;stroke:none" />
    <path
       d="m 110.07143,189.50504 a 1.5,1.5 0 1 1 -3,0 1.5,1.5 0 1 1 3,0 z"
       transform="translate(0,-59.285715)"
       id="path3877"
       style="fill:#0000ff;stroke:none" />
    <path
       d="m 120.78571,190.21931 a 1.5,1.5 0 1 1 -3,0 1.5,1.5 0 1 1 3,0 z"
       transform="translate(0,-59.285715)"
       id="path3879"
       style="fill:#0000ff;stroke:none" />
    <path
       d="m 126.5,191.6479 a 1.5,1.5 0 1 1 -3,0 1.5,1.5 0 1 1 3,0 z"
       transform="translate(0,-59.285715)"
       id="path3881"
       style="fill:#0000ff;stroke:none" />
    <path
       d="m 136.5,191.6479 a 1.5,1.5 0 1 1 -3,0 1.5,1.5 0 1 1 3,0 z"
       transform="translate(0,-59.285715)"
       id="path3883"
       style="fill:#0000ff;stroke:none" />
    <path
       d="m 144.35715,188.79076 a 1.5,1.5 0 1 1 -3,0 1.5,1.5 0 1 1 3,0 z"
       transform="translate(0,-59.285715)"
       id="path3885"
       style="fill:#0000ff;stroke:none" />
    <path
       d="m 152.92857,187.36218 a 1.5,1.5 0 1 1 -3,0 1.5,1.5 0 1 1 3,0 z"
       transform="translate(0,-59.285715)"
       id="path3887"
       style="fill:#0000ff;stroke:none" />
    <path
       d="m 160.78571,183.07648 a 1.5,1.5 0 1 1 -3,0 1.5,1.5 0 1 1 3,0 z"
       transform="translate(0,-59.285715)"
       id="path3889"
       style="fill:#0000ff;stroke:none" />
    <path
       d="m 168.64285,181.6479 a 1.5,1.5 0 1 1 -3,0 1.5,1.5 0 1 1 3,0 z"
       transform="translate(0,-59.285715)"
       id="path3891"
       style="fill:#0000ff;stroke:none" />
    <path
       d="m 175.07143,180.21931 a 1.5,1.5 0 1 1 -3,0 1.5,1.5 0 1 1 3,0 z"
       transform="translate(0,-59.285715)"
       id="path3893"
       style="fill:#0000ff;stroke:none" />
    <path
       d="m 181.5,178.79076 a 1.5,1.5 0 1 1 -3,0 1.5,1.5 0 1 1 3,0 z"
       transform="translate(0,-59.285715)"
       id="path3895"
       style="fill:#0000ff;stroke:none" />
    <path
       d="m 191.5,175.93361 a 1.5,1.5 0 1 1 -3,0 1.5,1.5 0 1 1 3,0 z"
       transform="translate(-4.2857143,-59.285715)"
       id="path3897"
       style="fill:#0000ff;stroke:none" />
    <path
       d="m 196.5,169.50504 a 1.5,1.5 0 1 1 -3,0 1.5,1.5 0 1 1 3,0 z"
       transform="translate(0,-59.285715)"
       id="path3899"
       style="fill:#0000ff;stroke:none" />
    <path
       d="m 202.21429,162.36218 a 1.5,1.5 0 1 1 -3,0 1.5,1.5 0 1 1 3,0 z"
       transform="translate(0,-59.285715)"
       id="path3901"
       style="fill:#0000ff;stroke:none" />
    <path
       d="m 205.07143,155.21931 a 1.5,1.5 0 1 1 -3,0 1.5,1.5 0 1 1 3,0 z"
       transform="translate(0,-59.285715)"
       id="path3903"
       style="fill:#0000ff;stroke:none" />
    <path
       d="m 203.64285,150.21931 a 1.5,1.5 0 1 1 -3,0 1.5,1.5 0 1 1 3,0 z"
       transform="translate(0,-59.285715)"
       id="path3905"
       style="fill:#0000ff;stroke:none" />
    <path
       d="m 199.35715,143.79076 a 1.5,1.5 0 1 1 -3,0 1.5,1.5 0 1 1 3,0 z"
       transform="translate(0,-59.285715)"
       id="path3907"
       style="fill:#0000ff;stroke:none" />
    <path
       d="m 200.78571,133.07648 a 1.5,1.5 0 1 1 -3,0 1.5,1.5 0 1 1 3,0 z"
       transform="translate(0,-59.285715)"
       id="path3909"
       style="fill:#0000ff;stroke:none" />
    <path
       d="m 207.21429,123.79075 a 1.5,1.5 0 1 1 -3,0 1.5,1.5 0 1 1 3,0 z"
       transform="translate(0,-59.285715)"
       id="path3911"
       style="fill:#0000ff;stroke:none" />
    <path
       d="m 227.92857,115.21932 a 1.5,1.5 0 1 1 -3,0 1.5,1.5 0 1 1 3,0 z"
       transform="translate(0,-59.285715)"
       id="path3913"
       style="fill:#0000ff;stroke:none" />
    <path
       d="m 240.07143,118.07647 a 1.5,1.5 0 1 1 -3,0 1.5,1.5 0 1 1 3,0 z"
       transform="translate(0,-59.285715)"
       id="path3915"
       style="fill:#0000ff;stroke:none" />
    <path
       d="m 245.07143,133.07648 a 1.5,1.5 0 1 1 -3,0 1.5,1.5 0 1 1 3,0 z"
       transform="translate(0,-59.285715)"
       id="path3917"
       style="fill:#0000ff;stroke:none" />
    <path
       d="m 244.35715,144.50504 a 1.5,1.5 0 1 1 -3,0 1.5,1.5 0 1 1 3,0 z"
       transform="translate(0,-59.285715)"
       id="path3919"
       style="fill:#0000ff;stroke:none" />
    <path
       d="m 235.78571,155.93361 a 1.5,1.5 0 1 1 -3,0 1.5,1.5 0 1 1 3,0 z"
       transform="translate(0,-59.285715)"
       id="path3921"
       style="fill:#0000ff;stroke:none" />
    <path
       d="m 221.5,158.79076 a 1.5,1.5 0 1 1 -3,0 1.5,1.5 0 1 1 3,0 z"
       transform="translate(0,-59.285715)"
       id="path3923"
       style="fill:#0000ff;stroke:none" />
    <path
       d="m 210.78571,159.50504 a 1.5,1.5 0 1 1 -3,0 1.5,1.5 0 1 1 3,0 z"
       transform="translate(0,-59.285715)"
       id="path3925"
       style="fill:#0000ff;stroke:none" />
    <path
       d="m 210.07143,153.79076 a 1.5,1.5 0 1 1 -3,0 1.5,1.5 0 1 1 3,0 z"
       transform="translate(0,-59.285715)"
       id="path3927"
       style="fill:#0000ff;stroke:none" />
    <path
       d="m 210.78571,150.93361 a 1.5,1.5 0 1 1 -3,0 1.5,1.5 0 1 1 3,0 z"
       transform="translate(0,-59.285715)"
       id="path3929"
       style="fill:#0000ff;stroke:none" />
    <path
       d="m 207.21429,138.07648 a 1.5,1.5 0 1 1 -3,0 1.5,1.5 0 1 1 3,0 z"
       transform="translate(0,-59.285715)"
       id="path3931"
       style="fill:#0000ff;stroke:none" />
    <path
       d="m 215.07143,132.36218 a 1.5,1.5 0 1 1 -3,0 1.5,1.5 0 1 1 3,0 z"
       transform="translate(0,-59.285715)"
       id="path3933"
       style="fill:#0000ff;stroke:none" />
    <path
       d="m 222.92857,126.6479 a 1.5,1.5 0 1 1 -3,0 1.5,1.5 0 1 1 3,0 z"
       transform="translate(0,-59.285715)"
       id="path3935"
       style="fill:#0000ff;stroke:none" />
    <path
       d="m 215.78571,123.07647 a 1.5,1.5 0 1 1 -3,0 1.5,1.5 0 1 1 3,0 z"
       transform="translate(0,-59.285715)"
       id="path3937"
       style="fill:#0000ff;stroke:none" />
    <path
       d="m 210.78571,130.93361 a 1.5,1.5 0 1 1 -3,0 1.5,1.5 0 1 1 3,0 z"
       transform="translate(0,-59.285715)"
       id="path3939"
       style="fill:#0000ff;stroke:none" />
    <path
       d="m 220.07143,116.6479 a 1.5,1.5 0 1 1 -3,0 1.5,1.5 0 1 1 3,0 z"
       transform="translate(0,-59.285715)"
       id="path3941"
       style="fill:#0000ff;stroke:none" />
    <path
       d="m 225.78571,120.21932 a 1.5,1.5 0 1 1 -3,0 1.5,1.5 0 1 1 3,0 z"
       transform="translate(0,-59.285715)"
       id="path3943"
       style="fill:#0000ff;stroke:none" />
    <path
       d="m 233.64285,123.07647 a 1.5,1.5 0 1 1 -3,0 1.5,1.5 0 1 1 3,0 z"
       transform="translate(0,-59.285715)"
       id="path3945"
       style="fill:#0000ff;stroke:none" />
    <path
       d="m 234.35715,128.79076 a 1.5,1.5 0 1 1 -3,0 1.5,1.5 0 1 1 3,0 z"
       transform="translate(0,-59.285715)"
       id="path3947"
       style="fill:#0000ff;stroke:none" />
    <path
       d="m 225.07143,138.07648 a 1.5,1.5 0 1 1 -3,0 1.5,1.5 0 1 1 3,0 z"
       transform="translate(0,-59.285715)"
       id="path3949"
       style="fill:#0000ff;stroke:none" />
    <path
       d="m 220.07143,131.6479 a 1.5,1.5 0 1 1 -3,0 1.5,1.5 0 1 1 3,0 z"
       transform="translate(0,-59.285715)"
       id="path3951"
       style="fill:#0000ff;stroke:none" />
    <path
       d="m 216.5,139.50504 a 1.5,1.5 0 1 1 -3,0 1.5,1.5 0 1 1 3,0 z"
       transform="translate(0,-59.285715)"
       id="path3953"
       style="fill:#0000ff;stroke:none" />
    <path
       d="m 210.78571,143.79076 a 1.5,1.5 0 1 1 -3,0 1.5,1.5 0 1 1 3,0 z"
       transform="translate(0,-59.285715)"
       id="path3955"
       style="fill:#0000ff;stroke:none" />
    <path
       d="m 215.78571,153.07648 a 1.5,1.5 0 1 1 -3,0 1.5,1.5 0 1 1 3,0 z"
       transform="translate(0,-59.285715)"
       id="path3957"
       style="fill:#0000ff;stroke:none" />
    <path
       d="m 221.5,147.36218 a 1.5,1.5 0 1 1 -3,0 1.5,1.5 0 1 1 3,0 z"
       transform="translate(0,-59.285715)"
       id="path3959"
       style="fill:#0000ff;stroke:none" />
    <path
       d="m 216.5,146.6479 a 1.5,1.5 0 1 1 -3,0 1.5,1.5 0 1 1 3,0 z"
       transform="translate(0,-59.285715)"
       id="path3961"
       style="fill:#0000ff;stroke:none" />
    <path
       d="m 225.78571,151.6479 a 1.5,1.5 0 1 1 -3,0 1.5,1.5 0 1 1 3,0 z"
       transform="translate(0,-59.285715)"
       id="path3963"
       style="fill:#0000ff;stroke:none" />
    <path
       d="m 231.5,147.36218 a 1.5,1.5 0 1 1 -3,0 1.5,1.5 0 1 1 3,0 z"
       transform="translate(0,-59.285715)"
       id="path3965"
       style="fill:#0000ff;stroke:none" />
    <path
       d="m 240.07143,148.07648 a 1.5,1.5 0 1 1 -3,0 1.5,1.5 0 1 1 3,0 z"
       transform="translate(0,-59.285715)"
       id="path3967"
       style="fill:#0000ff;stroke:none" />
    <path
       d="m 235.07143,140.21931 a 1.5,1.5 0 1 1 -3,0 1.5,1.5 0 1 1 3,0 z"
       transform="translate(0,-59.285715)"
       id="path3969"
       style="fill:#0000ff;stroke:none" />
    <path
       d="m 228.64285,132.36218 a 1.5,1.5 0 1 1 -3,0 1.5,1.5 0 1 1 3,0 z"
       transform="translate(0,-59.285715)"
       id="path3971"
       style="fill:#0000ff;stroke:none" />
    <path
       d="m 237.21429,134.50504 a 1.5,1.5 0 1 1 -3,0 1.5,1.5 0 1 1 3,0 z"
       transform="translate(0,-59.285715)"
       id="path3973"
       style="fill:#0000ff;stroke:none" />
    <path
       d="m 242.21429,126.6479 a 1.5,1.5 0 1 1 -3,0 1.5,1.5 0 1 1 3,0 z"
       transform="translate(0,-59.285715)"
       id="path3975"
       style="fill:#0000ff;stroke:none" />
    <path
       d="m 232.92857,116.6479 a 1.5,1.5 0 1 1 -3,0 1.5,1.5 0 1 1 3,0 z"
       transform="translate(0,-59.285715)"
       id="path3977"
       style="fill:#0000ff;stroke:none" />
    <path
       d="m 240.78571,138.07648 a 1.5,1.5 0 1 1 -3,0 1.5,1.5 0 1 1 3,0 z"
       transform="translate(0,-59.285715)"
       id="path3979"
       style="fill:#0000ff;stroke:none" />
    <path
       d="m 228.64285,157.36218 a 1.5,1.5 0 1 1 -3,0 1.5,1.5 0 1 1 3,0 z"
       transform="translate(0,-59.285715)"
       id="path3981"
       style="fill:#0000ff;stroke:none" />
    <path
       d="m 192.21429,173.07648 a 1.5,1.5 0 1 1 -3,0 1.5,1.5 0 1 1 3,0 z"
       transform="translate(0,-59.285715)"
       id="path3983"
       style="fill:#0000ff;stroke:none" />
  </g>
</svg>
